<svg xmlns="http://www.w3.org/2000/svg" viewBox="0 0 100 100" fill="none">
  <!-- Primary Color: Vibrant Orange #FF6B35 -->
  <defs>
    <filter id="glow" x="-20%" y="-20%" width="140%" height="140%">
      <feGaussianBlur stdDeviation="2" result="blur"/>
      <feComposite in="SourceGraphic" in2="blur" operator="over"/>
    </filter>
  </defs>
  
  <!-- Location Pin Shape -->
  <path d="M50 5 C25.147 5 5 25.147 5 50 C5 74.853 50 95 50 95 C50 95 95 74.853 95 50 C95 25.147 74.853 5 50 5 Z" fill="#FF6B35"/>
  
  <!-- Fork/Culinary Symbol (Negative Space) -->
  <path d="M50 25 C50 25 50 45 50 45 M38 28 C38 28 38 42 42 45 M62 28 C62 28 62 42 58 45 M50 55 L50 75" stroke="white" stroke-width="6" stroke-linecap="round" stroke-linejoin="round"/>
  
  <!-- Refined Fork Detail -->
  <path d="M38 28 L38 38 Q38 48 50 48 Q62 48 62 38 L62 28" stroke="white" stroke-width="6" stroke-linecap="round" fill="none"/>
  <line x1="50" y1="48" x2="50" y2="70" stroke="white" stroke-width="6" stroke-linecap="round"/>
</svg>
